<?xml version="1.0" encoding="utf-8"?>
<!-- Generator: Adobe Illustrator 21.0.0, SVG Export Plug-In . SVG Version: 6.00 Build 0)  -->
<svg version="1.1" id="Layer_2" xmlns="http://www.w3.org/2000/svg" xmlns:xlink="http://www.w3.org/1999/xlink" x="0px" y="0px"
	 viewBox="0 0 1400 1400" style="enable-background:new 0 0 1400 1400;" xml:space="preserve">
<style type="text/css">
	.st0{clip-path:url(#SVGID_2_);}
	.st1{fill:#272C2D;}
	.st2{fill:#454B4C;}
	.st3{fill:#7DBEC9;}
	.st4{fill:#3D1F0B;}
	.st5{fill:#131616;}
	.st6{fill:#F2AE8F;}
	.st7{fill:#EFEEED;}
	.st8{fill:#53747F;}
	.st9{fill:#C94A35;}
	.st10{fill:#B23F28;}
	.st11{fill:#304F56;}
	.st12{fill:#DD9376;}
	.st13{fill:#EAEAEA;}
	.st14{fill:#A57453;}
	.st15{fill:#875C3E;}
	.st16{fill:#6D472E;}
	.st17{fill:#3E5F68;}
	.st18{fill:#FDFFFF;}
	.st19{fill:#B76C4E;}
	.st20{fill:#D6D5D4;}
	.st21{fill:#0B1416;}
</style>
<g>
	<defs>
		<rect id="SVGID_1_" width="1400" height="1400"/>
	</defs>
	<clipPath id="SVGID_2_">
		<use xlink:href="#SVGID_1_"  style="overflow:visible;"/>
	</clipPath>
	<g class="st0">
		<rect x="-28" y="-28" class="st1" width="1456" height="1456"/>
		<g>
			<g>
				<path class="st2" d="M174.8,1249.1H87.3c-9.1,0-16.4-7.4-16.4-16.4v-35.3c0-9.1,7.4-16.4,16.4-16.4h87.5
					c9.1,0,16.4,7.4,16.4,16.4v35.3C191.2,1241.7,183.9,1249.1,174.8,1249.1z M87.3,1188.2c-5.1,0-9.2,4.1-9.2,9.2v35.3
					c0,5.1,4.1,9.2,9.2,9.2h87.5c5.1,0,9.2-4.1,9.2-9.2v-35.3c0-5.1-4.1-9.2-9.2-9.2H87.3z"/>
			</g>
			<g>
				<path class="st2" d="M237.3,1177.1h-87.5c-9.1,0-16.4-7.4-16.4-16.4v-35.3c0-9.1,7.4-16.4,16.4-16.4h87.5
					c9.1,0,16.4,7.4,16.4,16.4v35.3C253.7,1169.7,246.4,1177.1,237.3,1177.1z M149.8,1116.2c-5.1,0-9.2,4.1-9.2,9.2v35.3
					c0,5.1,4.1,9.2,9.2,9.2h87.5c5.1,0,9.2-4.1,9.2-9.2v-35.3c0-5.1-4.1-9.2-9.2-9.2H149.8z"/>
			</g>
			<g>
				<path class="st2" d="M109.8,1177.1H22.3c-9.1,0-16.4-7.4-16.4-16.4v-35.3c0-9.1,7.4-16.4,16.4-16.4h87.5
					c9.1,0,16.4,7.4,16.4,16.4v35.3C126.2,1169.7,118.9,1177.1,109.8,1177.1z M22.3,1116.2c-5.1,0-9.2,4.1-9.2,9.2v35.3
					c0,5.1,4.1,9.2,9.2,9.2h87.5c5.1,0,9.2-4.1,9.2-9.2v-35.3c0-5.1-4.1-9.2-9.2-9.2H22.3z"/>
			</g>
		</g>
		<g>
			<g>
				<path class="st2" d="M1230.7,669.7h-87.5c-9.1,0-16.4-7.4-16.4-16.4V618c0-9.1,7.4-16.4,16.4-16.4h87.5
					c9.1,0,16.4,7.4,16.4,16.4v35.3C1247.1,662.4,1239.7,669.7,1230.7,669.7z M1143.2,608.8c-5.1,0-9.2,4.1-9.2,9.2v35.3
					c0,5.1,4.1,9.2,9.2,9.2h87.5c5.1,0,9.2-4.1,9.2-9.2V618c0-5.1-4.1-9.2-9.2-9.2H1143.2z"/>
			</g>
			<g>
				<path class="st2" d="M1293.2,597.7h-87.5c-9.1,0-16.4-7.4-16.4-16.4V546c0-9.1,7.4-16.4,16.4-16.4h87.5
					c9.1,0,16.4,7.4,16.4,16.4v35.3C1309.6,590.4,1302.2,597.7,1293.2,597.7z M1205.7,536.8c-5.1,0-9.2,4.1-9.2,9.2v35.3
					c0,5.1,4.1,9.2,9.2,9.2h87.5c5.1,0,9.2-4.1,9.2-9.2V546c0-5.1-4.1-9.2-9.2-9.2H1205.7z"/>
			</g>
			<g>
				<path class="st2" d="M1165.7,597.7h-87.5c-9.1,0-16.4-7.4-16.4-16.4V546c0-9.1,7.4-16.4,16.4-16.4h87.5
					c9.1,0,16.4,7.4,16.4,16.4v35.3C1182.1,590.4,1174.7,597.7,1165.7,597.7z M1078.2,536.8c-5.1,0-9.2,4.1-9.2,9.2v35.3
					c0,5.1,4.1,9.2,9.2,9.2h87.5c5.1,0,9.2-4.1,9.2-9.2V546c0-5.1-4.1-9.2-9.2-9.2H1078.2z"/>
			</g>
		</g>
		<g>
			<g>
				<path class="st2" d="M1314.2,1247.1h-87.5c-9.1,0-16.4-7.4-16.4-16.4v-35.3c0-9.1,7.4-16.4,16.4-16.4h87.5
					c9.1,0,16.4,7.4,16.4,16.4v35.3C1330.7,1239.8,1323.3,1247.1,1314.2,1247.1z M1226.8,1186.2c-5.1,0-9.2,4.1-9.2,9.2v35.3
					c0,5.1,4.1,9.2,9.2,9.2h87.5c5.1,0,9.2-4.1,9.2-9.2v-35.3c0-5.1-4.1-9.2-9.2-9.2H1226.8z"/>
			</g>
			<g>
				<path class="st2" d="M1376.7,1175.1h-87.5c-9.1,0-16.4-7.4-16.4-16.4v-35.3c0-9.1,7.4-16.4,16.4-16.4h87.5
					c9.1,0,16.4,7.4,16.4,16.4v35.3C1393.2,1167.8,1385.8,1175.1,1376.7,1175.1z M1289.3,1114.2c-5.1,0-9.2,4.1-9.2,9.2v35.3
					c0,5.1,4.1,9.2,9.2,9.2h87.5c5.1,0,9.2-4.1,9.2-9.2v-35.3c0-5.1-4.1-9.2-9.2-9.2H1289.3z"/>
			</g>
			<g>
				<path class="st2" d="M1249.2,1175.1h-87.5c-9.1,0-16.4-7.4-16.4-16.4v-35.3c0-9.1,7.4-16.4,16.4-16.4h87.5
					c9.1,0,16.4,7.4,16.4,16.4v35.3C1265.7,1167.8,1258.3,1175.1,1249.2,1175.1z M1161.8,1114.2c-5.1,0-9.2,4.1-9.2,9.2v35.3
					c0,5.1,4.1,9.2,9.2,9.2h87.5c5.1,0,9.2-4.1,9.2-9.2v-35.3c0-5.1-4.1-9.2-9.2-9.2H1161.8z"/>
			</g>
		</g>
		<g>
			<g>
				<path class="st2" d="M537,1213.4h87.5c9.1,0,16.4,7.4,16.4,16.4v35.3c0,9.1-7.4,16.4-16.4,16.4H537c-9.1,0-16.4-7.4-16.4-16.4
					v-35.3C520.6,1220.8,528,1213.4,537,1213.4z M624.5,1274.3c5.1,0,9.2-4.1,9.2-9.2v-35.3c0-5.1-4.1-9.2-9.2-9.2H537
					c-5.1,0-9.2,4.1-9.2,9.2v35.3c0,5.1,4.1,9.2,9.2,9.2H624.5z"/>
			</g>
			<g>
				<path class="st2" d="M474.5,1285.4H562c9.1,0,16.4,7.4,16.4,16.4v35.3c0,9.1-7.4,16.4-16.4,16.4h-87.5
					c-9.1,0-16.4-7.4-16.4-16.4v-35.3C458.1,1292.8,465.5,1285.4,474.5,1285.4z M562,1346.3c5.1,0,9.2-4.1,9.2-9.2v-35.3
					c0-5.1-4.1-9.2-9.2-9.2h-87.5c-5.1,0-9.2,4.1-9.2,9.2v35.3c0,5.1,4.1,9.2,9.2,9.2H562z"/>
			</g>
			<g>
				<path class="st2" d="M602,1285.4h87.5c9.1,0,16.4,7.4,16.4,16.4v35.3c0,9.1-7.4,16.4-16.4,16.4H602c-9.1,0-16.4-7.4-16.4-16.4
					v-35.3C585.6,1292.8,593,1285.4,602,1285.4z M689.5,1346.3c5.1,0,9.2-4.1,9.2-9.2v-35.3c0-5.1-4.1-9.2-9.2-9.2H602
					c-5.1,0-9.2,4.1-9.2,9.2v35.3c0,5.1,4.1,9.2,9.2,9.2H689.5z"/>
			</g>
		</g>
		<path class="st2" d="M-39.1,124.7h87.5c9.1,0,16.4-7.4,16.4-16.4V73c0-9.1-7.4-16.4-16.4-16.4h-87.5c-9.1,0-16.4,7.4-16.4,16.4
			v35.3C-55.5,117.3-48.2,124.7-39.1,124.7z M-48.3,73c0-5.1,4.1-9.2,9.2-9.2h87.5c5.1,0,9.2,4.1,9.2,9.2v35.3
			c0,5.1-4.1,9.2-9.2,9.2h-87.5c-5.1,0-9.2-4.1-9.2-9.2V73z M113.4,128.5H25.9c-9.1,0-16.4,7.4-16.4,16.4v35.3
			c0,9.1,7.4,16.4,16.4,16.4h87.5c9.1,0,16.4-7.4,16.4-16.4V145C129.8,135.9,122.4,128.5,113.4,128.5z M122.6,180.2
			c0,5.1-4.1,9.2-9.2,9.2H25.9c-5.1,0-9.2-4.1-9.2-9.2V145c0-5.1,4.1-9.2,9.2-9.2h87.5c5.1,0,9.2,4.1,9.2,9.2V180.2z M-14.1,128.5
			h-87.5c-9.1,0-16.4,7.4-16.4,16.4v35.3c0,9.1,7.4,16.4,16.4,16.4h87.5c9.1,0,16.4-7.4,16.4-16.4V145
			C2.3,135.9-5.1,128.5-14.1,128.5z M-4.9,180.2c0,5.1-4.1,9.2-9.2,9.2h-87.5c-5.1,0-9.2-4.1-9.2-9.2V145c0-5.1,4.1-9.2,9.2-9.2
			h87.5c5.1,0,9.2,4.1,9.2,9.2V180.2z"/>
		<g>
			<path class="st3" d="M416.3,171.5L416.3,171.5c-158.2,0-286.5,128.3-286.5,286.5v546.9h572.9V458
				C702.7,299.8,574.5,171.5,416.3,171.5z"/>
			<path class="st4" d="M632.8,241.5c-57.8-57.8-134.7-89.7-216.5-89.7h0c-81.8,0-158.7,31.8-216.5,89.7
				c-57.8,57.8-89.7,134.7-89.7,216.5v566.7h612.4V458C722.5,376.2,690.6,299.3,632.8,241.5z M682.9,451.1H436V192
				C571.6,202,679.4,313.8,682.9,451.1z M396.5,490.6v223.5h-247V490.6H396.5z M436,490.6h247v223.5H436V490.6z M396.5,192v259.1
				H149.6C153.1,313.8,260.9,202,396.5,192z M149.5,753.5h247v231.6h-247V753.5z M436,985.2V753.5h247v231.6H436z"/>
		</g>
		<rect x="70.9" y="1024.6" class="st2" width="686.1" height="25"/>
		<rect x="70.9" y="1049.7" class="st5" width="686.1" height="25"/>
		<g>
			<polygon class="st6" points="583.7,832.3 527.5,795.5 493,801.2 485,817.5 487.3,831.2 614.4,884.4 607.5,855.5 			"/>
			<path class="st7" d="M703.4,625.7c0,0-10.4,14.3-48.7,48.3c-38.3,34-60.3,56-60.3,56h-14.8l10.8,3c0,0-24.5,46.4-42.8,59.5
				c-12.3,8.7-26.8,9.8-26.8,9.8s-1.4-26.3,18.9-56c20.3-29.7,62.7-63.3,62.7-63.3l-4,21.7l8.7-23.5
				C607,681.2,674.1,626.3,703.4,625.7z"/>
			<polygon class="st8" points="888.5,693 867.3,688 845,697.4 765,810 582,829.5 614.4,884.4 735.3,914.5 844.5,871.7 			"/>
			<path class="st9" d="M801.6,928.2c0,0-8.7,64.3,7.4,82.8s62.6,1.9,62.6,1.9L851,928.2H801.6z"/>
			<path class="st10" d="M1061.8,686.6c0,0,14,48.4,21.5,72.7c7.5,24.4-56.3,103.3-56.3,103.3l-61.2-212.9l44.6,8.7L1061.8,686.6z"
				/>
			<path class="st8" d="M1033.6,686.6c0,0,42.1,76.2,49.1,128.4c7,52.2-49.1,97.4-49.1,97.4s32.8,88.1,38.6,134.5
				c5.8,46.4-80,96.3-169.3,96.3s-117.1,0-117.1,0v272.5l-228.5,22c0,0,20.9-325.9,22-347.9s229.6-90.5,229.6-90.5L855,910
				L1033.6,686.6z"/>
			<path class="st11" d="M1050.7,962.3c0.2,12.4,0.3,43.6-3.2,58.2c-4.5,18.5-19,17.5-19,17.5l-6.5-74.5l-10.5,54.5l-40.5,31.6
				l25.5-44.1l8.5-81.5h32.8c-2.6-7.3-4.2-11.6-4.2-11.6s16.8-13.5,30.8-34.3l3.3-5.1c0,0,0-0.1,0.1-0.1l-27.2,13.1v-23.4
				c0,0-10-62.1-10-64.6s-2.5,53.7-2.5,53.7L994,901h-35l-5,15.5h18.5L878.7,1024l-50.2-11l26.5,36.7L748,1107l-112.4-16l102.4,56
				l-14.8,136.5l-9.9-99.5L676,1426.3l109.8-10.6v-272.5c0,0,27.8,0,117.1,0s175.1-49.9,169.3-96.3
				C1069.3,1023.7,1059.6,990.1,1050.7,962.3z"/>
			<path class="st6" d="M738.2,581.3c0,0,9.9,69.6,30.7,88.7l19.1-7.5l6.4,13.3l20.9,17.4l39.4-23.2l16.8,49.3l86.4-71.9
				c0,0-99.2-89.9-138.6-99.2S738.2,581.3,738.2,581.3z"/>
			<path class="st12" d="M854.7,670l16.8,49.3l18.6-15.5l-3.5-11.8c0,0,7-40,6-51c-0.7-8.2,27.3-12.7,41.4-14.5
				c-7-5.9-15.1-12.7-23.7-19.7l-12-7.1h-37l-9.7,72.2L854.7,670z"/>
			<path class="st9" d="M808.9,862.6c0,0,47.7-130.2,74.2-176c34.5-59.6,100.5-53.5,100.5-53.5l78.1,53.5c0,0-77-47.3-103.8,4.4
				c-23,44.4-67.6,180.7-67.6,180.7L808.9,862.6z"/>
			<path class="st13" d="M745.7,581.3c0,0,27.8,6.4,47,0s19.1-6.4,19.1-6.4s19.7,17.4,23.8,26.1c4.1,8.7,11.6,29.6,7,41.8
				s-54.5,19.7-54.5,19.7s0.9,11.6,6.8,21.5c5.9,9.9,1.9,90.5,14.1,88.7S875,692,875,657.8c0-34.2-3.5-37.7-3.5-37.7
				s35.9-9.3,52.2-2.3c0,0,19.7-30.2,7-51.6c-12.8-21.5-80-85.2-116-78.9c-36,6.4-102.1,61.5-101.5,80.6
				c0.6,19.1,29.5,37.9,29.5,37.9S737,586.5,745.7,581.3z"/>
			<path class="st8" d="M943.1,700.5l-74.3,149.3L713.2,883l-9.9,39.4l77.9,31.8l160.2,15.4l103.2-217.5
				c13.9-28.3,2.1-62.4-26.3-76.1l-0.4-0.2C990.5,662.5,957.4,673.4,943.1,700.5z"/>
			<polygon class="st6" points="610.2,886.9 669.8,851.7 713.2,883 713.2,928.2 			"/>
			
				<rect x="139.4" y="825.3" transform="matrix(0.9224 0.3862 -0.3862 0.9224 361.7522 -116.097)" class="st14" width="660.9" height="34.2"/>
			<rect x="164" y="968.1" class="st14" width="562" height="44.8"/>
			<rect x="177.5" y="1012.9" class="st15" width="535" height="73.5"/>
			<rect x="177.5" y="1012.9" class="st16" width="535" height="22.1"/>
			<g>
				<rect x="635.6" y="1086.4" class="st14" width="41.7" height="394.3"/>
				<rect x="212.7" y="1086.4" class="st14" width="41.7" height="394.3"/>
			</g>
			<g>
				<rect x="635.6" y="1086.4" class="st16" width="41.7" height="24.7"/>
				<rect x="212.7" y="1086.4" class="st16" width="41.7" height="24.7"/>
			</g>
			<polygon class="st15" points="177.5,738.6 177.5,968.1 726,968.1 			"/>
			<polygon class="st16" points="177.5,772.7 645,968.1 723.2,966.9 177.5,738.6 			"/>
			<path class="st17" d="M987.5,705c-22,13.5-75,187-75,187L877,859.5l23,45.5l-86.5,28L726,898l35.5,27.5L726,923l-13.5-30
				l-5.8,30.8l74.6,30.4l135.8,13l28.4-6l99.3-209.1c8.6-17.5,7.3-37.3-1.6-53.1C1031.7,697.3,1004.5,694.6,987.5,705z"/>
			<rect x="785.7" y="1111.1" class="st14" width="353.3" height="67.9"/>
			<g>
				<path class="st14" d="M1141.6,1441.5c-1.8-8.1-44-199.7-47.1-310.2c-2.7-98.4,59-526.9,74.7-634.4c1.9-13.1,14.1-22.2,27.3-20.3
					l0,0c13.1,1.9,22.1,14.1,20.2,27.2c-15.4,105.7-76.8,532.8-74.3,626.1c2.9,106,45.5,299.2,45.9,301.1L1141.6,1441.5z"/>
			</g>
			<rect x="785.7" y="1169" class="st14" width="45.3" height="257.3"/>
			<path class="st18" d="M814.7,487.3c-33.6,6-93.6,54.6-100.8,76.5c0,0,29,14.7,57.5,12.7c28.5-2,66-16.5,66-16.5s-23,5-45,0
				c0,0,64.5-8.5,76.5-20.5c7.9-7.9,35,5,52.7,14.7C898.7,527.4,845.3,481.9,814.7,487.3z"/>
			<path class="st19" d="M792.5,672.1c0,0,3.3,1.4,8.8,0s19.1-3,22.1-2c0,0-10.8,3.7-15.4,6.6s-10.3,5.1-11.4,4.3
				S792.5,672.1,792.5,672.1z"/>
			<path class="st20" d="M507.5,816c0,0,90.8-138.3,192.5-190.3c0,0-58.7,35.3-115.7,99S511.7,816,511.7,816H507.5z"/>
			<path class="st13" d="M751.3,603.8c0,0,2,7,4,6.3s11.8-8.8,21.8-13s29.3-6,29.3-6s-13.5-4.3-27.5-2.3s-23.3,8.8-23.3,8.8l-0.5,7
				l-1.5-6.8C753.5,597.8,750.1,600.6,751.3,603.8z"/>
			
				<ellipse transform="matrix(0.8131 -0.5821 0.5821 0.8131 -216.3586 563.8284)" class="st21" cx="769.9" cy="618.9" rx="4.2" ry="6.6"/>
		</g>
		<g>
			<g>
				<path class="st2" d="M937.8,336.8h-87.5c-9.1,0-16.4-7.4-16.4-16.4v-35.3c0-9.1,7.4-16.4,16.4-16.4h87.5
					c9.1,0,16.4,7.4,16.4,16.4v35.3C954.2,329.4,946.9,336.8,937.8,336.8z M850.3,275.9c-5.1,0-9.2,4.1-9.2,9.2v35.3
					c0,5.1,4.1,9.2,9.2,9.2h87.5c5.1,0,9.2-4.1,9.2-9.2v-35.3c0-5.1-4.1-9.2-9.2-9.2H850.3z"/>
			</g>
			<g>
				<path class="st2" d="M1000.3,264.8h-87.5c-9.1,0-16.4-7.4-16.4-16.4v-35.3c0-9.1,7.4-16.4,16.4-16.4h87.5
					c9.1,0,16.4,7.4,16.4,16.4v35.3C1016.7,257.4,1009.4,264.8,1000.3,264.8z M912.8,203.9c-5.1,0-9.2,4.1-9.2,9.2v35.3
					c0,5.1,4.1,9.2,9.2,9.2h87.5c5.1,0,9.2-4.1,9.2-9.2v-35.3c0-5.1-4.1-9.2-9.2-9.2H912.8z"/>
			</g>
			<g>
				<path class="st2" d="M872.8,264.8h-87.5c-9.1,0-16.4-7.4-16.4-16.4v-35.3c0-9.1,7.4-16.4,16.4-16.4h87.5
					c9.1,0,16.4,7.4,16.4,16.4v35.3C889.2,257.4,881.9,264.8,872.8,264.8z M785.3,203.9c-5.1,0-9.2,4.1-9.2,9.2v35.3
					c0,5.1,4.1,9.2,9.2,9.2h87.5c5.1,0,9.2-4.1,9.2-9.2v-35.3c0-5.1-4.1-9.2-9.2-9.2H785.3z"/>
			</g>
		</g>
		<g>
			<path class="st2" d="M1331.2,70.1h-87.5c-9.1,0-16.4-7.4-16.4-16.4V18.4c0-9.1,7.4-16.4,16.4-16.4h87.5c9.1,0,16.4,7.4,16.4,16.4
				v35.3C1347.6,62.7,1340.2,70.1,1331.2,70.1z M1243.7,9.2c-5.1,0-9.2,4.1-9.2,9.2v35.3c0,5.1,4.1,9.2,9.2,9.2h87.5
				c5.1,0,9.2-4.1,9.2-9.2V18.4c0-5.1-4.1-9.2-9.2-9.2H1243.7z"/>
		</g>
	</g>
</g>
</svg>
